HIERARCHY
ROOT Hips
{
	OFFSET -0.179506 -22.333345 2.821913
	CHANNELS 6 Xposition Yposition Zposition Zrotation Yrotation Xrotation 
	JOINT LeftUpLeg
	{
		OFFSET 6.951974 -9.140623 -0.681533
		CHANNELS 3 Zrotation Yrotation Xrotation
		JOINT LeftLeg
		{
			OFFSET 3.427654 -37.519855 -0.449580
			CHANNELS 3 Zrotation Yrotation Xrotation
			JOINT LeftFoot
			{
				OFFSET -1.359570 -39.796059 -4.369333
				CHANNELS 3 Zrotation Yrotation Xrotation
				JOINT LeftToe
				{
					OFFSET 2.635814 -5.579078 11.928840
					CHANNELS 3 Zrotation Yrotation Xrotation
					End Site
					{
						OFFSET 0.000000 0.000000 0.000000
					}
				}
			}
		}
	}
	JOINT RightUpLeg
	{
		OFFSET -6.767048 -9.052170 -0.431982
		CHANNELS 3 Zrotation Yrotation Xrotation
		JOINT RightLeg
		{
			OFFSET -3.829005 -38.256897 -0.885003
			CHANNELS 3 Zrotation Yrotation Xrotation
			JOINT RightFoot
			{
				OFFSET 1.577377 -39.841461 -4.231180
				CHANNELS 3 Zrotation Yrotation Xrotation
				JOINT RightToe
				{
					OFFSET -2.537174 -4.814398 12.334795
					CHANNELS 3 Zrotation Yrotation Xrotation
					End Site
					{
						OFFSET 0.000000 0.000000 0.000000
					}
				}
			}
		}
	}
	JOINT Spine
	{
		OFFSET -0.253288 10.896323 -2.669631
		CHANNELS 3 Zrotation Yrotation Xrotation
		JOINT Spine1
		{
			OFFSET 0.548704 13.518043 0.109247
			CHANNELS 3 Zrotation Yrotation Xrotation
			JOINT Spine2
			{
				OFFSET 0.145701 5.292222 2.542457
				CHANNELS 3 Zrotation Yrotation Xrotation
				JOINT Neck
				{
					OFFSET -0.277840 21.387037 -4.285703
					CHANNELS 3 Zrotation Yrotation Xrotation
					JOINT Head
					{
						OFFSET 0.515184 6.496960 5.134897
						CHANNELS 3 Zrotation Yrotation Xrotation
						End Site
						{
							OFFSET 0.000000 0.000000 0.000000
						}
					}
				}
				JOINT LeftShoulder
				{
					OFFSET 7.884473 12.174932 -3.408961
					CHANNELS 3 Zrotation Yrotation Xrotation
					JOINT LeftArm
					{
						OFFSET 9.097692 3.046888 -0.886815
						CHANNELS 3 Zrotation Yrotation Xrotation
						JOINT LeftForeArm
						{
							OFFSET 25.961220 -1.277207 -2.745643
							CHANNELS 3 Zrotation Yrotation Xrotation
							JOINT LeftHand
							{
								OFFSET 24.923361 0.898606 -0.117091
								CHANNELS 3 Zrotation Yrotation Xrotation
								End Site
								{
									OFFSET 0.000000 0.000000 0.000000
								}
							}
						}
					}
				}
				JOINT RightShoulder
				{
					OFFSET -8.175920 11.883285 -3.861528
					CHANNELS 3 Zrotation Yrotation Xrotation
					JOINT RightArm
					{
						OFFSET -9.601238 3.255117 -0.914307
						CHANNELS 3 Zrotation Yrotation Xrotation
						JOINT RightForeArm
						{
							OFFSET -25.374195 -1.332924 -2.140099
							CHANNELS 3 Zrotation Yrotation Xrotation
							JOINT RightHand
							{
								OFFSET -25.529810 0.777228 -0.555919
								CHANNELS 3 Zrotation Yrotation Xrotation
								End Site
								{
									OFFSET 0.000000 0.000000 0.000000
								}
							}
						}
					}
				}
			}
		}
	}
}
MOTION
Frames: 10
Frame Time: 0.033333
128.917969 111.923065 30.643555 -174.070570 58.574398 -176.970512 2.569692 -1.211872 -1.597960 -7.636826 -8.572756 43.811157 2.079725 14.141871 -12.958149 1.168564 -1.011942 -0.626601 -0.729956 2.017764 -1.668102 0.587793 9.452290 10.764136 3.281656 -7.220113 -9.629826 0.834590 -0.150784 -0.815691 1.967087 -0.953338 7.506417 1.143520 -2.234337 -4.601735 1.150635 -1.628523 8.164583 -2.552855 6.590233 2.072414 -2.830411 7.805538 -0.248042 -21.232252 9.501434 -3.643669 -48.581531 -4.128441 4.224200 1.448934 -2.818189 -5.549973 -0.396194 -1.921802 -5.890589 21.576349 -4.521987 -4.295755 52.998698 0.869490 12.044763 -1.446817 10.555487 -8.495614 5.159305 2.757365 -16.020043 
129.211761 110.027023 30.825554 -176.044157 54.436802 -179.107943 3.011222 -2.236939 -11.263191 -7.620613 -2.594957 55.693029 3.185686 15.760078 -13.663445 1.291688 -1.158917 -0.648757 -1.133672 0.886369 -1.038347 0.693602 9.430647 12.397876 0.419584 -9.387821 -17.141688 0.913654 -0.040196 -1.061133 1.741999 0.896942 9.598274 0.953961 -2.337241 -4.587663 1.065829 -0.881913 8.730211 -2.976329 6.084361 1.060444 -2.418043 7.864799 -0.551906 -20.255268 9.039162 -4.336010 -43.951456 -5.429642 1.434762 2.795258 -3.723453 -10.924068 2.848375 -1.476372 -7.337540 21.471695 -4.297210 -4.072657 50.594912 1.023611 10.056063 -2.964582 9.973183 -12.532436 4.799205 2.272020 -16.468022 
129.873413 110.221451 31.443464 -177.687282 49.761892 179.026961 3.188596 -2.965594 -19.306064 -7.666892 2.651629 64.290916 4.249152 16.716371 -15.033826 1.218332 -1.256122 -0.628346 -1.179095 0.167936 -0.068132 0.936252 9.578576 13.480252 0.020360 -11.562974 -17.403661 1.031652 0.017221 -1.232505 1.515458 2.651401 11.486831 0.762312 -2.426221 -4.507828 0.931642 -0.226007 8.887112 -3.103302 4.376687 1.005991 -1.587167 7.379921 -0.373021 -19.154296 8.467819 -4.955594 -38.730067 -6.072825 -1.453091 4.489064 -6.233011 -16.959339 6.138666 -0.889098 -10.614303 20.863317 -4.497749 -4.107907 46.187923 1.345759 7.376934 -4.983610 10.225588 -16.381192 3.643131 1.132365 -16.465609 
130.113037 110.658310 32.566326 -179.396790 44.331147 177.079730 3.895234 -3.002095 -27.076979 -7.658615 7.407852 70.808700 4.860180 16.982159 -16.236393 0.930354 -1.275108 -0.643560 -1.488065 -0.606470 1.257098 1.024714 9.989612 13.439528 0.180254 -13.439210 -16.706308 1.274278 0.076235 -1.712791 0.898777 4.297015 13.383872 1.124758 -2.734728 -4.998118 0.749789 0.115296 8.795090 -2.828828 3.682542 1.528398 -1.161620 7.239612 -0.116440 -17.895485 8.696034 -5.536038 -33.208064 -6.046553 -4.612672 7.069021 -9.587091 -24.023143 9.774675 -0.798477 -14.623842 20.300725 -4.870977 -4.592480 41.384646 1.818435 4.710406 -7.385956 10.872640 -21.469845 0.507033 0.802398 -18.365604 
131.090179 111.319321 33.546333 178.530229 39.831740 175.427670 4.874687 -2.044284 -34.416962 -7.205070 12.418964 74.944935 5.091790 16.681666 -18.006796 0.300863 -1.242134 -0.334252 -2.308560 -2.167169 3.278559 0.569091 10.115096 11.471047 1.031488 -13.368695 -15.307300 1.516165 0.108818 -2.173618 -0.065115 5.811936 14.645308 1.364179 -2.866006 -5.768449 0.524502 0.320552 8.734826 -2.467951 3.186152 2.713572 -0.255638 7.248414 -0.548470 -16.388325 9.961476 -6.545698 -27.987929 -4.963858 -8.672840 14.118466 -16.066979 -34.024449 14.727941 -0.641945 -20.161265 19.056685 -6.009051 -5.332980 36.981419 1.510863 1.226216 -12.365726 14.199744 -27.931386 -2.251310 1.516002 -21.959693 
132.077576 110.045273 34.454018 176.600000 35.756275 174.292913 5.854015 -0.676779 -41.679549 -6.302635 16.419409 78.710101 4.980265 15.971749 -19.149094 -0.236026 -1.191786 -0.100561 -3.314828 -3.841890 4.725383 -0.200632 10.262770 10.301568 0.093261 -11.724022 -19.924413 1.823376 0.109153 -2.609239 -1.050336 6.894782 15.655623 1.604288 -3.180298 -6.680249 0.371935 0.333803 8.694515 -2.108732 2.643172 4.199267 0.597895 7.396018 -1.110565 -15.002330 10.963999 -8.077469 -22.362136 -3.912403 -11.861547 23.254981 -22.708641 -42.445085 17.979951 -0.669947 -22.725693 17.757361 -7.201299 -6.474007 32.005559 0.389657 -2.266357 -18.691213 18.721778 -34.607376 -4.434581 1.906154 -26.261213 
132.330963 110.704086 34.459232 175.375521 32.129658 173.640999 6.933029 -0.073498 -48.444677 -5.171716 18.742918 83.123123 4.533541 14.893020 -19.395500 -0.599156 -1.167233 0.135231 -4.287896 -5.440628 5.824705 -1.159849 9.861344 9.335515 1.417220 -10.086527 -15.876211 1.984138 0.104238 -2.765555 -1.990711 7.975363 16.414970 1.937529 -3.621437 -7.656650 0.449975 0.166615 8.773734 -2.044381 2.368333 5.748919 1.219202 7.160859 -1.257891 -13.047356 11.378971 -9.285703 -17.081966 -3.302603 -14.728573 32.937961 -29.068946 -49.771416 20.316098 -1.248425 -23.551557 16.313731 -8.632329 -7.388159 27.727560 -1.773476 -5.264773 -28.835763 25.863056 -42.649482 -5.929954 1.939319 -31.145971 
132.543472 111.191483 34.413063 174.810109 29.431453 173.768848 8.380391 1.418577 -53.862494 -3.688727 21.372109 88.171380 4.438237 13.952581 -19.042928 -0.937928 -1.221650 0.171918 -4.932535 -6.809715 6.783742 -1.302739 9.534715 7.903257 2.418447 -8.974126 -12.197587 2.340682 0.114907 -2.978289 -2.858752 9.054598 17.087904 2.287619 -4.120609 -8.661531 0.653662 0.182753 9.025840 -2.137732 2.387375 6.946603 1.760228 7.028301 -1.197374 -11.003864 11.011582 -9.891364 -11.736469 -2.740452 -17.653881 40.687068 -32.663720 -56.209044 23.290358 -1.919427 -21.488575 14.862859 -9.411967 -7.787983 24.116370 -3.546411 -8.029674 -42.022659 31.923159 -53.205546 -9.188702 1.346121 -33.055381 
132.696579 111.289413 34.336411 174.841834 27.607083 174.288058 9.686549 2.173123 -58.850153 -2.517692 22.914953 93.794206 4.733342 12.919416 -19.649826 -0.982863 -1.316778 0.193619 -5.443734 -7.794466 7.659840 -1.243366 9.517168 6.604556 3.797480 -6.865166 -9.735702 2.531140 0.131009 -3.055408 -3.891075 10.237118 17.640674 2.709080 -4.835351 -10.358781 0.846875 0.135784 9.584549 -2.369144 2.014844 8.442701 1.841263 5.774459 -1.491041 -8.577240 10.558539 -9.982062 -7.652326 -2.303160 -20.133627 48.285021 -34.593227 -60.927282 25.406917 -3.705852 -17.899026 12.800411 -10.353374 -8.141279 22.292514 -4.665694 -10.697093 -58.611132 35.421440 -66.139431 -11.564855 1.975829 -33.549157 
132.845642 110.971985 34.210655 174.727416 25.884700 174.742942 10.651024 2.831201 -61.832105 -1.692858 23.949894 95.746881 4.371367 11.641867 -19.583069 -0.964408 -1.329156 0.163439 -6.170009 -8.443142 8.441355 -1.277807 9.101623 6.246808 4.906108 -4.922268 -9.489258 2.551146 0.134942 -3.133737 -4.367161 11.001884 18.105108 2.907838 -5.516863 -11.456628 0.954502 0.076309 10.056499 -2.327249 2.165946 9.359309 1.420363 4.569736 -1.450641 -6.600879 10.440290 -9.694600 -4.663894 -0.724021 -22.473927 53.571967 -35.721026 -64.110718 26.750087 -5.759622 -14.117283 11.052798 -11.028761 -8.561849 20.558941 -5.019387 -13.443233 -75.453709 35.565764 -78.260476 -14.124301 3.372992 -28.812600 
